<svg class="style-svg replaced-svg svg-replaced-1" id="svg-replaced-1" viewBox="0 0 87.271 80" height="80" width="87.271" xmlns="http://www.w3.org/2000/svg"><path transform="translate(-1 -3)" d="M29.785,3a5.155,5.155,0,0,0-5.149,5.11v2.163a6.88,6.88,0,0,0-5.742,3.612L4.48,36.256q-.032.051-.06.1A27.287,27.287,0,0,0,1,49.584V66.636A14.573,14.573,0,0,0,15.545,81.182H25.879A5.133,5.133,0,0,0,29.785,83H66.756a5.166,5.166,0,0,0,4.918-3.675c.158.01.313.039.472.039h6.8a7.426,7.426,0,0,0,7.369-5.82,7.24,7.24,0,0,0-1.644-6.161,6.983,6.983,0,0,0,.948-11.58,7,7,0,0,0,2.514-4.077,7.285,7.285,0,0,0-3.445-7.653,6.934,6.934,0,0,0,1.627-3.256,7.329,7.329,0,0,0-7.131-8.725H71.909V8.11A5.155,5.155,0,0,0,66.76,3Zm0,3.636H66.76A1.489,1.489,0,0,1,68.273,8.11V33.131a7.288,7.288,0,0,0-3.494,7.685l0,0a6.9,6.9,0,0,0,1.14,2.624,7.307,7.307,0,0,0-4.78,8.281l0,0A6.989,6.989,0,0,0,63.656,55.8a7.138,7.138,0,0,0-2.514,6.832l0,0a7.234,7.234,0,0,0,4.819,5.383c-.1.143-.2.284-.288.433h-37.4v-25.3c.028-.157.9-5.044,1.793-10.483.456-2.763.913-5.625,1.257-8.011a44.7,44.7,0,0,0,.586-5.295,9.7,9.7,0,0,0-2.514-7.056,7.222,7.222,0,0,0-1.122-.909V8.11A1.486,1.486,0,0,1,29.785,6.636Zm-5.149,7.273a2.923,2.923,0,0,1,.916.185,1.818,1.818,0,0,0,.359.16,3.325,3.325,0,0,1,.92.632c.742.738,1.442,2.006,1.442,4.478,0,.449-.213,2.433-.55,4.776s-.79,5.191-1.243,7.94c-.907,5.5-1.815,10.6-1.815,10.6a1.818,1.818,0,0,0-.028.32V69.967a1.818,1.818,0,0,0,0,.593v6.985H15.545A10.882,10.882,0,0,1,4.636,66.636V49.584A23.638,23.638,0,0,1,7.587,38.149L21.984,15.8l.028-.05A3.356,3.356,0,0,1,24.636,13.909ZM71.909,35.727h7.273a3.611,3.611,0,0,1,3.562,4.382A3.82,3.82,0,0,1,78.944,43h-6.8a3.82,3.82,0,0,1-3.8-2.891,3.6,3.6,0,0,1,1.971-4.023,1.818,1.818,0,0,0,.707-.249h0A3.71,3.71,0,0,1,71.909,35.727ZM68.273,46.636H81a3.611,3.611,0,0,1,3.562,4.382,3.82,3.82,0,0,1-3.8,2.891H68.511a3.82,3.82,0,0,1-3.8-2.891A3.611,3.611,0,0,1,68.273,46.636Zm0,10.909H81a3.611,3.611,0,0,1,3.562,4.382,3.82,3.82,0,0,1-3.8,2.891H68.511a3.82,3.82,0,0,1-3.8-2.891A3.611,3.611,0,0,1,68.273,57.545Zm3.636,10.909h7.273a3.611,3.611,0,0,1,3.562,4.382,3.82,3.82,0,0,1-3.8,2.891h-6.8a4.1,4.1,0,0,1-1.19-.185,1.819,1.819,0,0,0-.44-.167,3.606,3.606,0,0,1-2.17-2.539,3.78,3.78,0,0,1,.039-1.69s0,0,0,0a1.818,1.818,0,0,0,.178-.458A3.6,3.6,0,0,1,71.909,68.455ZM28.273,72.091H64.647a7.278,7.278,0,0,0,.131,1.452l0,0A7.087,7.087,0,0,0,68.2,78.263a1.477,1.477,0,0,1-1.442,1.1H29.785a1.5,1.5,0,0,1-1.342-.831,1.818,1.818,0,0,0-.171-.266Zm14.545,1.818a1.818,1.818,0,1,0,0,3.637H53.727a1.818,1.818,0,1,0,0-3.637Z"/></svg>