<svg class="style-svg replaced-svg svg-replaced-2" id="svg-replaced-2" viewBox="0 0 90 75.435" height="75.435" width="90" xmlns="http://www.w3.org/2000/svg"><path transform="translate(-8 -80)" d="M96.548,138.29A1.6,1.6,0,0,0,98,136.576v-6.858A1.6,1.6,0,0,0,96.548,128H92.194V98.859a1.6,1.6,0,0,0-1.452-1.714h-2.9V88.572a1.6,1.6,0,0,0-1.452-1.714h-8.71a1.6,1.6,0,0,0-1.452,1.714v8.572H64.613a1.6,1.6,0,0,0-1.452,1.714v18.859H57.355V88.572A1.6,1.6,0,0,0,55.9,86.858H39.935V81.714A1.6,1.6,0,0,0,38.484,80H21.065a1.6,1.6,0,0,0-1.452,1.714v18.859H15.258a1.6,1.6,0,0,0-1.452,1.714V128H9.452A1.6,1.6,0,0,0,8,129.718v6.858a1.6,1.6,0,0,0,1.452,1.714h4.355v6.858H9.452A1.6,1.6,0,0,0,8,146.862v6.858a1.6,1.6,0,0,0,1.452,1.714h87.1A1.6,1.6,0,0,0,98,153.72v-6.858a1.6,1.6,0,0,0-1.452-1.714H92.194V138.29Zm-17.419-48h5.806v6.858H79.129Zm-4.355,10.286h5.806v10.286H74.774Zm-8.71,0h5.806v12a1.6,1.6,0,0,0,1.452,1.714h8.71a1.6,1.6,0,0,0,1.452-1.714v-12H89.29V128H66.065Zm-8.71,20.573h5.806V128H57.355ZM45.742,90.286h2.9v3.429h-2.9Zm-5.806,0h2.9V95.43a1.6,1.6,0,0,0,1.452,1.714H50.1a1.6,1.6,0,0,0,1.452-1.714V90.286h2.9v17.144H39.935Zm8.71,20.573v3.429h-2.9v-3.429Zm-8.71,0h2.9V116a1.6,1.6,0,0,0,1.452,1.714H50.1A1.6,1.6,0,0,0,51.548,116v-5.143h2.9V128H39.935ZM28.323,83.429h2.9v3.429h-2.9Zm-5.806,0h2.9v5.143a1.6,1.6,0,0,0,1.452,1.714h5.806a1.6,1.6,0,0,0,1.452-1.714V83.429h2.9v17.144H22.516ZM29.774,104v6.858H23.968V104ZM16.71,104h4.355v8.572a1.6,1.6,0,0,0,1.452,1.714h8.71a1.6,1.6,0,0,0,1.452-1.714V104h4.355v24H16.71ZM95.1,148.576v3.429H10.9v-3.429ZM16.71,145.148V138.29h2.9v6.858Zm5.806,0V138.29H48.645v6.858Zm29.032,0V138.29h2.9v6.858Zm5.806,0V138.29H83.484v6.858Zm29.032,0V138.29h2.9v6.858ZM10.9,134.861v-3.429H95.1v3.429Z"/></svg>