<svg class="style-svg replaced-svg svg-replaced-3" id="svg-replaced-3" viewBox="0 0 76.667 80" height="80" width="76.667" xmlns="http://www.w3.org/2000/svg"><path transform="translate(-2)" d="M18.667,0a3.357,3.357,0,0,0-3.333,3.333V6.667h-10a3.362,3.362,0,0,0-2.383.951A3.362,3.362,0,0,0,2,10V76.667a3.388,3.388,0,0,0,.951,2.389A3.384,3.384,0,0,0,5.333,80h70a3.229,3.229,0,0,0,3.333-3.333V10a3.239,3.239,0,0,0-3.333-3.333h-10V3.333A3.357,3.357,0,0,0,62,0H58.667a3.357,3.357,0,0,0-3.333,3.333V6.667h-30V3.333A3.357,3.357,0,0,0,22,0Zm0,3.333H22v10H18.667Zm40,0H62v10H58.667ZM5.333,10h10v3.333a3.357,3.357,0,0,0,3.333,3.333H22a3.357,3.357,0,0,0,3.333-3.333V10h30v3.333a3.357,3.357,0,0,0,3.333,3.333H62a3.357,3.357,0,0,0,3.333-3.333V10h10V21.667h-70Zm0,15h70V76.667h-70Zm10,6.667V70h50V31.667ZM18.667,35H27v8.333H18.667Zm11.667,0h8.333v8.333H30.333ZM42,35h8.333v8.333H42Zm11.667,0H62v8.333H53.667Zm-35,11.667H27V55H18.667Zm11.667,0h8.333V55H30.333Zm11.667,0h8.333V55H42Zm11.667,0H62V55H53.667Zm-35,11.667H27v8.333H18.667Zm11.667,0h8.333v8.333H30.333Zm11.667,0h8.333v8.333H42Zm11.667,0H62v8.333H53.667Z"/></svg>